# xmcd
#
# Track frame offsets:
#	150
#	20833
#	43777
#	67115
#	88481
#	112047
#	133398
#	192414
#	211783
#	230086
#	249995
#
# Disc length: 3563 seconds
#
# Revision: 0
# Processed by: cddbd v1.5.2PL0 Copyright (c) Steve Scherf et al.
# Submitted via: audiograbber 1.83.01
#
DISCID=ae0de90b
DTITLE=Taj Mahal - The Real Thing - Revisited Live
DYEAR=1996
DGENRE=Blues
TTITLE0=Queen Bee
TTITLE1=Blues Ain´ Nothin´
TTITLE2=Baby, Your Allright With Me
TTITLE3=Rascal
TTITLE4=Further On Down The Road
TTITLE5=Big Knee´d Gal
TTITLE6=Whislin Dixie
TTITLE7=Divin Duck Blues
TTITLE8=Mail Box
TTITLE9=John Ain´t It Hard
TTITLE10=Katey
EXTD=
EXTT0=
EXTT1=
EXTT2=
EXTT3=
EXTT4=
EXTT5=
EXTT6=
EXTT7=
EXTT8=
EXTT9=
EXTT10=
PLAYORDER=
